{"title":"The Prodigy - Smack My Bitch Up Official-Uncensored-HD","uid":8551561,"size":51563933,"categoryP":"porn","categoryS":"other","magnet":"?xt=urn:btih:0cbff0121b27bf67130aeb1559f0305f1b4927ca&amp;dn=The+Prodigy+-+Smack+My+Bitch+Up+Official-Uncensored-HD&amp;tr=udp%3A%2F%2Ftracker.openbittorrent.com%3A80&amp;tr=udp%3A%2F%2Fopen.demonii.com%3A1337&amp;tr=udp%3A%2F%2Ftracker.coppersurfer.tk%3A6969&amp;tr=udp%3A%2F%2Fexodus.desync.com%3A6969","seeders":2,"leechers":0,"uploader":"Jolly_Rogers69","files":-1,"time":1370652171,"description":" &lt;a href=&quot;http://img541.imageshack.us/img541/2677/theprodigysmackmybitchu.jpg&quot; rel=&quot;nofollow&quot; target=&quot;_NEW&quot;&gt;http://img541.imageshack.us/img541/2677/theprodigysmackmybitchu.jpg&lt;/a&gt;\n\nThe Prodigy - Smack My Bitch Up - Official Uncensored HD\n\nGeneral\nComplete name                            : The Prodigy - Smack My Bitch Up Official-Uncensored-HD.mp4\nFormat                                   : MPEG-4\nFormat profile                           : Base Media\nCodec ID                                 : isom\nFile size                                : 48.4 MiB\nDuration                                 : 4mn 34s\nOverall bit rate mode                    : Variable\nOverall bit rate                         : 1 476 Kbps\nWriting application                      : Lavf52.40.0\n\nVideo\nID                                       : 1\nFormat                                   : AVC\nFormat/Info                              : Advanced Video Codec\nFormat profile                           : &lt;a class=&quot;__cf_email__&quot; href=&quot;/cdn-cgi/l/email-protection&quot; data-cfemail=&quot;6a22030d022a2659445b&quot;&gt;[email&amp;#160;protected]&lt;/a&gt;&lt;script cf-hash='f9e31' type=&quot;text/javascript&quot;&gt;\n/* &lt;![CDATA[ */!function(){try{var t=&quot;currentScript&quot;in document?document.currentScript:function(){for(var t=document.getElementsByTagName(&quot;script&quot;),e=t.length;e--;)if(t[e].getAttribute(&quot;cf-hash&quot;))return t[e]}();if(t&amp;&amp;t.previousSibling){var e,r,n,i,c=t.previousSibling,a=c.getAttribute(&quot;data-cfemail&quot;);if(a){for(e=&quot;&quot;,r=parseInt(a.substr(0,2),16),n=2;a.length-n;n+=2)i=parseInt(a.substr(n,2),16)^r,e+=String.fromCharCode(i);e=document.createTextNode(e),c.parentNode.replaceChild(e,c)}}}catch(u){}}();/* ]]&gt; */&lt;/script&gt;\nFormat settings, CABAC                   : Yes\nFormat settings, ReFrames                : 3 frames\nCodec ID                                 : avc1\nCodec ID/Info                            : Advanced Video Coding\nDuration                                 : 4mn 34s\nBit rate                                 : 1 350 Kbps\nWidth                                    : 960 pixels\nHeight                                   : 720 pixels\nDisplay aspect ratio                     : 4:3\nFrame rate mode                          : Constant\nFrame rate                               : 25.000 fps\nColor space                              : YUV\nChroma subsampling                       : 4:2:0\nBit depth                                : 8 bits\nScan type                                : Progressive\nBits/(Pixel*Frame)                       : 0.078\nStream size                              : 44.0 MiB (91%)\nWriting library                          : x264 core 79\nEncoding settings                        : cabac=1 / ref=3 / deblock=1:0:0\n\nAudio\nID                                       : 2\nFormat                                   : AAC\nFormat/Info                              : Advanced Audio Codec\nFormat profile                           : LC\nCodec ID                                 : 40\nDuration                                 : 4mn 34s\nBit rate mode                            : Variable\nBit rate                                 : 128 Kbps\nChannel(s)                               : 2 channels\nChannel positions                        : Front: L R\nSampling rate                            : 44.1 KHz\nCompression mode                         : Lossy\nDelay relative to video                  : 40ms\nStream size                              : 4.19 MiB (9%)","torrent":{"xt":"urn:btih:0cbff0121b27bf67130aeb1559f0305f1b4927ca","amp;dn":"The+Prodigy+-+Smack+My+Bitch+Up+Official-Uncensored-HD","amp;tr":["udp%3A%2F%2Ftracker.openbittorrent.com%3A80","udp%3A%2F%2Fopen.demonii.com%3A1337","udp%3A%2F%2Ftracker.coppersurfer.tk%3A6969","udp%3A%2F%2Fexodus.desync.com%3A6969"],"infoHash":"0cbff0121b27bf67130aeb1559f0305f1b4927ca","infoHashBuffer":{"type":"Buffer","data":[12,191,240,18,27,39,191,103,19,10,235,21,89,240,48,95,27,73,39,202]},"announce":[],"urlList":[]}}